<svg id="e2d231b5-561c-4f81-b92f-6f2457687cb7" data-name="Layer 1" xmlns="http://www.w3.org/2000/svg" width="865.76" height="682.89" viewBox="0 0 865.76 682.89"><path d="M258.26,526.14s-3.47-26.45,54.39-26.88c0,0,44.92-1.47,76.77,12.24,0,0,57.79,24.88,117.76,5.51a55.2,55.2,0,0,0,12.68-5.89,185.14,185.14,0,0,1,64.78-26s73.15-18.83,78.45-50.21l1,83.51s-32.92,35.79-68.94,40.8c0,0-29.28,4.13-39.21,8.86,0,0-27.48-25.93-67.31-14.67a241.49,241.49,0,0,0-34.29,15.94s-42.25,25.53-82.16-5.78c0,0-8.25-6.23-12-11,0,0-15.25-20-49-9.08C311.24,543.53,269.16,562.49,258.26,526.14Z" fill="#e6e7e8"/><path d="M249.77,127s49.41-41.4,103.63-14.46a7.62,7.62,0,0,1,3,2.6c4.92,7.49,24.09,39.33,25.29,83.19,0,0,1.17,34.07-6.76,67,0,0-32,128.93,25.25,163.88,0,0,29.12,20.13,86.82,12.22,4.8-.66,9.62-1.16,14.46-1.4,11.5-.57,33.37-1.91,46.62-4.33,0,0,81.42-19.41,104.64-10.82,0,0,26.08,6.36-4.13,31.81,0,0-26.4,21.31-71.89,30.22,0,0-35.3,10.17-56,23.85,0,0-32.76,24.49-96.69,11.77,0,0-26.29-6.13-40.8-12-1.71-.69-3.44-1.31-5.21-1.84-8.3-2.47-31.47-8.42-65.32-9.42,0,0-50.73-36.42-46-153.31a318.78,318.78,0,0,1,4.77-51.05s24.14-110.65,7-153.13A26.4,26.4,0,0,0,266,128C261.57,125.75,255.89,124.43,249.77,127Z" fill="#d1d3d4"/><path d="M258.26,526.14s6.68,33.87,50.89,18.29a50.69,50.69,0,0,1,32.44-2.92,39.48,39.48,0,0,1,19.18,11.67c10.9,11.87,44.06,40.68,92.4,16.79a48.16,48.16,0,0,0,5.29-3.07c9.84-6.46,54.95-32.46,94.11-2.12,7.65,5.93,15.33,10.86,24.58,13.73,15.06,4.66,36.23,6.34,58-7.68l47.71,42.62s-76.21,48.46-139.34,9.48a60.17,60.17,0,0,0-12.6-6c-9.94-3.32-26-6.23-40.73,2.16l-18.61,9.78s-73.34,52-121.09,18.58c-.75-.52-1.47-1.08-2.18-1.65-4-3.22-21.09-16-40.17-18.22a14,14,0,0,0-2.67,0c-7.41.61-44.94,2.48-47.24-21.59Z" fill="#d1d3d4"/><path d="M268.29,396.54c-4.93-65,7.94-126.79,7.94-126.79,8.43-38.35,8.37-85.06,8.37-85.06-1-45.17-10.63-50.36-10.63-50.36-12-13.78-24.2-7.34-24.2-7.34-23,18.33-5,46.73-5,46.73,20.06,38.88,7.33,82-1.55,103.4a87.91,87.91,0,0,1-10.39,18.16c-18.49,25.23-19.66,86.26-19.66,86.26l-5.79,37.4c-6.68,36.94-24.48,41.84-24.48,41.84s50.39,22.52,111.78,17.49C294.66,478.27,275,451.64,268.29,396.54Z" fill="#e6e7e8"/><g opacity="0.2"><path d="M281,123.81a.55.55,0,0,1-.15-1.09c.42-.12,42.06-11.08,68-2.9a.56.56,0,0,1,.36.7.55.55,0,0,1-.7.36c-25.66-8.08-67,2.8-67.41,2.91Z" fill="#fff"/></g><g opacity="0.2"><path d="M294.66,147a.55.55,0,0,1-.15-1.09c.41-.11,40.94-10.65,65.22-6.07a.56.56,0,0,1,.45.65.56.56,0,0,1-.65.44c-24-4.53-64.33,5.95-64.73,6A.36.36,0,0,1,294.66,147Z" fill="#fff"/></g><g opacity="0.2"><path d="M300.39,174.28a.56.56,0,0,1-.09-1.11c.45-.07,45.56-7.23,70.44-2.57a.56.56,0,0,1,.44.65.55.55,0,0,1-.65.44c-24.68-4.62-69.6,2.51-70.06,2.58Z" fill="#fff"/></g><g opacity="0.2"><path d="M376.27,201.7h-.07c-12.46-1.43-80.84,0-81.53,0a.57.57,0,0,1-.57-.55.56.56,0,0,1,.54-.57c.69,0,69.15-1.43,81.69,0a.54.54,0,0,1,.49.61A.55.55,0,0,1,376.27,201.7Z" fill="#fff"/></g><g opacity="0.2"><path d="M368.59,231.29H292.16a.56.56,0,0,1,0-1.12h76.43a.56.56,0,0,1,0,1.12Z" fill="#fff"/></g><g opacity="0.2"><path d="M364.24,261.68H292.16a.56.56,0,0,1,0-1.11h72.08a.56.56,0,1,1,0,1.11Z" fill="#fff"/></g><g opacity="0.2"><path d="M285.39,294.58a.56.56,0,0,1,0-1.12l74.25-3.38a.56.56,0,0,1,.05,1.11l-74.25,3.39Z" fill="#fff"/></g><g opacity="0.2"><path d="M277.65,328a.54.54,0,0,1-.55-.5.55.55,0,0,1,.5-.61l82-7.74a.56.56,0,0,1,.1,1.11l-82,7.74Z" fill="#fff"/></g><g opacity="0.2"><path d="M277.65,365.17a.57.57,0,0,1-.55-.45.55.55,0,0,1,.44-.65l79.34-15.45a.56.56,0,1,1,.21,1.09l-79.33,15.45Z" fill="#fff"/></g><g opacity="0.2"><path d="M285.39,403.26a.56.56,0,0,1-.53-.4.55.55,0,0,1,.37-.69l77.4-23.54a.55.55,0,1,1,.32,1.06l-77.4,23.54A.45.45,0,0,1,285.39,403.26Z" fill="#fff"/></g><g opacity="0.2"><path d="M292.65,439.7a.55.55,0,0,1-.23-1.06L366,405.74a.55.55,0,0,1,.73.28.56.56,0,0,1-.28.74l-73.53,32.89A.44.44,0,0,1,292.65,439.7Z" fill="#fff"/></g><g opacity="0.2"><path d="M313.45,479.56a.56.56,0,0,1-.33-1L379.88,430a.56.56,0,0,1,.65.9l-66.76,48.56A.48.48,0,0,1,313.45,479.56Z" fill="#fff"/></g><g opacity="0.2"><path d="M362.79,501.14a.52.52,0,0,1-.31-.1.55.55,0,0,1-.15-.77l39.18-58.53a.55.55,0,0,1,.77-.16.57.57,0,0,1,.16.78l-39.19,58.53A.54.54,0,0,1,362.79,501.14Z" fill="#fff"/></g><g opacity="0.2"><path d="M415,516.13h-.11a.56.56,0,0,1-.44-.65l13.06-66.76a.56.56,0,0,1,.65-.44.57.57,0,0,1,.44.66l-13.06,66.75A.55.55,0,0,1,415,516.13Z" fill="#fff"/></g><g opacity="0.2"><path d="M498.72,516.13a.55.55,0,0,1-.55-.51l-4.35-60.86a.54.54,0,0,1,.51-.59.56.56,0,0,1,.6.51l4.35,60.86a.56.56,0,0,1-.52.59Z" fill="#fff"/></g><g opacity="0.2"><path d="M528.94,501.14a.56.56,0,0,1-.55-.48l-7.23-49.05a.56.56,0,0,1,.47-.63.55.55,0,0,1,.63.47l7.23,49.05a.55.55,0,0,1-.47.63Z" fill="#fff"/></g><g opacity="0.2"><path d="M583,481.05a.56.56,0,0,1-.55-.56V439.15a.56.56,0,1,1,1.11,0v41.34A.56.56,0,0,1,583,481.05Z" fill="#fff"/></g><g opacity="0.2"><path d="M608.78,473.74h0a.55.55,0,0,1-.51-.6l3.5-40.08a.56.56,0,0,1,.6-.5.55.55,0,0,1,.51.6l-3.5,40.08A.55.55,0,0,1,608.78,473.74Z" fill="#fff"/></g><g opacity="0.2"><path d="M636.45,460.38h-.1a.57.57,0,0,1-.45-.65L640.67,433a.56.56,0,1,1,1.1.2L637,459.92A.57.57,0,0,1,636.45,460.38Z" fill="#fff"/></g><g opacity="0.2"><path d="M269,614.4a.56.56,0,0,1-.56-.56V551.2a.56.56,0,0,1,.56-.56.55.55,0,0,1,.55.56v62.64A.55.55,0,0,1,269,614.4Z" fill="#fff"/></g><g opacity="0.2"><path d="M290.12,620.5a.56.56,0,0,1-.56-.56V555.67a.56.56,0,0,1,1.12,0v64.27A.56.56,0,0,1,290.12,620.5Z" fill="#fff"/></g><g opacity="0.2"><path d="M318.19,622.94a.56.56,0,0,1-.56-.56V551.2a.56.56,0,0,1,1.12,0v71.18A.56.56,0,0,1,318.19,622.94Z" fill="#fff"/></g><g opacity="0.2"><path d="M346.83,637.59a.56.56,0,0,1-.56-.56V551.2a.56.56,0,1,1,1.11,0V637A.56.56,0,0,1,346.83,637.59Z" fill="#fff"/></g><g opacity="0.2"><path d="M371.88,651a.56.56,0,0,1-.55-.56V575.2a.56.56,0,1,1,1.11,0v75.25A.56.56,0,0,1,371.88,651Z" fill="#fff"/></g><g opacity="0.2"><path d="M403.61,651a.56.56,0,0,1-.55-.56V586.79a.56.56,0,1,1,1.11,0v63.66A.56.56,0,0,1,403.61,651Z" fill="#fff"/></g><g opacity="0.2"><path d="M436.56,640.84a.57.57,0,0,1-.55-.47l-8.46-53.49a.56.56,0,1,1,1.1-.18l8.46,53.5a.55.55,0,0,1-.46.63Z" fill="#fff"/></g><g opacity="0.2"><path d="M464.63,622.94a.55.55,0,0,1-.51-.33l-17.49-39.87a.56.56,0,0,1,1-.44l17.49,39.86a.55.55,0,0,1-.28.73A.48.48,0,0,1,464.63,622.94Z" fill="#fff"/></g><path d="M430.5,519.67s27.88-3.36,25.95-13.31c0,0,11.75,3.89,23.77.56l1.4,2.57S469.35,527.81,430.5,519.67Z" fill="#f9b499"/><path d="M424,522.48s1.44-2.11,6.52-2.81c0,0,35.79,8.44,51.12-10.18v15S452.15,529.94,424,522.48Z" fill="#8900f2"/><g opacity="0.2"><path d="M487.92,613.38a.56.56,0,0,1-.52-.36l-17.34-45.23a.56.56,0,0,1,1-.4l17.34,45.24a.56.56,0,0,1-.32.72A.69.69,0,0,1,487.92,613.38Z" fill="#fff"/></g><g opacity="0.2"><path d="M504.85,609.11a.57.57,0,0,1-.56-.5l-6.12-52.47a.56.56,0,1,1,1.11-.13l6.12,52.47a.55.55,0,0,1-.49.62Z" fill="#fff"/></g><g opacity="0.2"><path d="M529.9,609.11a.56.56,0,0,1-.56-.51l-4.74-48.75a.56.56,0,0,1,.5-.6.55.55,0,0,1,.61.5l4.74,48.75a.55.55,0,0,1-.5.6Z" fill="#fff"/></g><g opacity="0.2"><path d="M551.22,619.18a.56.56,0,0,1-.55-.56V571a.56.56,0,0,1,1.11,0v47.65A.56.56,0,0,1,551.22,619.18Z" fill="#fff"/></g><g opacity="0.2"><path d="M583.05,631.45a.57.57,0,0,1-.56-.49l-5.07-44.11a.55.55,0,1,1,1.1-.12l5.08,44.1a.55.55,0,0,1-.49.61Z" fill="#fff"/></g><g opacity="0.2"><path d="M619.27,631.45a.57.57,0,0,1-.5-.3l-21-40.69a.55.55,0,1,1,1-.51l21,40.69a.55.55,0,0,1-.24.75A.54.54,0,0,1,619.27,631.45Z" fill="#fff"/></g><g opacity="0.2"><path d="M654.14,619.18a.57.57,0,0,1-.43-.2l-29.45-34.44a.56.56,0,1,1,.85-.73l29.45,34.45a.57.57,0,0,1-.06.79A.61.61,0,0,1,654.14,619.18Z" fill="#fff"/></g><path d="M458,223.84s-23.79,69.63-12.82,208.94l7.63,72.29s18.61,7.63,35.55-1.2c0,0-6.92-128.1,20.27-206.82,0,0,17.18,132.24,35.95,201.26,0,0,27-11.45,32.12-11.45,0,0-6.24-59.48-6.08-108.85q0-4.51.28-9c1.1-19.36,5.44-103-1-122,0,0-3.11-20.73-15.75-28.6C554.15,218.33,479.6,231.75,458,223.84Z" fill="#2f2e41"/><path d="M451.85,496.38s15.7,5.07,30,0c0,0-7.95-155.36,26.71-199.33,0,0-26.88,89-20.27,206.82,0,0-15.35,9.23-35.55,1.2Z" fill="#3f3d56"/><path d="M569.4,488.67c-6.3-11.16-8-75-8-75L561.17,343c1.65-22.16-4.82-81.94-4.82-81.94C536.66,251.9,529,229.81,529,229.81l3.29-.38s9.08,21.82,26.85,30.17c0,0,7.3,30.77,4.77,86.59,0,0,.48,78.72,4.05,97.33l4.64,44.15Z" fill="#3f3d56"/><path d="M549.46,236.44l-8.11,8.06s6.59,9,14.16,13.13l6.56-7S551.58,247.76,549.46,236.44Z" fill="#f9b499"/><path d="M555.44,223.65c-30.7,12.8-80.44,4.52-91.58,3a10.34,10.34,0,0,1-5.91-2.81,11.67,11.67,0,0,1-3.1-9.11,18.85,18.85,0,0,1,2.86-9.06c5.21-8.38,7.94-20.66,7.94-20.66-58.85,23.53-89.38-31.17-89.38-31.17,4.31-3.59,5.19-9.71,5.37-12.51a2.26,2.26,0,0,1,3.79-1.55l.06.06a70.84,70.84,0,0,0,29.09,9,49.37,49.37,0,0,0,41-17.44c8.37-9.81,25.68-28.74,36.61-31.2,0,0,28.36-9.54,51.74,1.59,0,0,40.08,15.35,55.34,70.22,0,0,16.94,48.18-35.78,79,0,0-13.12-2.63-14.31-16.94C549.14,234.07,549.71,232.34,555.44,223.65Z" fill="#8900f2"/><path d="M447.16,190.13s10.74-5.25,12.28-26.12a60.25,60.25,0,0,0-.08-9.21c-.43-5.35-.51-19.09,8.83-26.41,0,0-11,13.84-5.09,31.65,0,0,5.29,15.61,2.55,25C465.65,185,454.28,189.43,447.16,190.13Z" opacity="0.2"/><path d="M555.44,223.65a64.64,64.64,0,0,0,3.84-11.44,52.51,52.51,0,0,0,1.46-11.9,54.23,54.23,0,0,0-.37-6,44.39,44.39,0,0,0-5.66-16.91,41.18,41.18,0,0,0-3.3-5c-.61-.79-1.25-1.53-1.93-2.27s-1.36-1.52-2-2.29a63.65,63.65,0,0,1-14.06-33.14,60.94,60.94,0,0,0,3,11.68,67.07,67.07,0,0,0,5,10.94,67.75,67.75,0,0,0,6.83,9.87c.65.75,1.33,1.48,2,2.23s1.38,1.52,2,2.32a42.26,42.26,0,0,1,3.43,5.08,45.35,45.35,0,0,1,5.91,23.45,53.07,53.07,0,0,1-1.78,12A60.46,60.46,0,0,1,555.44,223.65Z" opacity="0.2"/><path d="M501.43,87.57v7.66s1,7.81,6.84,8.27c0,0,8.91,1.14,16.06-8.51l-.64-13.62Z" fill="#f9b499"/><path d="M501.43,91.07l-.64-4.13,22.9-5.57.16,6S515.43,95.05,501.43,91.07Z" fill="#f7a78d"/><ellipse cx="506.16" cy="54.14" rx="30.52" ry="35.69" fill="#f9b499"/><path d="M478.84,70.05s-7,24,13.28,29c0,0,3.58-4.77,9.31-3.82V89.4A30.93,30.93,0,0,1,478.84,70.05Z" fill="#2f2e41"/><path d="M528.42,52.06l4.49,6.84a10.75,10.75,0,0,1,1.19,9.59c-3.14,8.56-10.27,14.75-10.27,14.75l.5,11.75c4.82,2.15,14.76,4.86,14.76,4.86a37.13,37.13,0,0,0,18.16-7.48c7.87-6.68-2.86-19.08-2.86-19.08-3.52-3,0-9.52,1.75-12.3a11.55,11.55,0,0,0,1.43-3.21c2.62-9.92-.14-17-2.09-20.36a14,14,0,0,0-2.18-2.79c-1.31-1.37-2.9-4.79-4.32-8.34-7.19-18-29.57-24.29-44.91-12.48l-.15.12a3.24,3.24,0,0,1-1.89.69c-29.63.94-26.39,41.25-26.39,41.25a30.92,30.92,0,0,0,9.81-18.13s1.17-10.75,8.81-16.47C494.26,21.27,501.26,53.26,528.42,52.06Z" fill="#2f2e41"/><ellipse cx="535.45" cy="53.65" rx="7.14" ry="9.11" fill="#f9b499"/><path d="M533.4,97.61c-4,11.2-21.95,14.56-21.95,14.56a8.15,8.15,0,0,0-1.67-4.84,2.58,2.58,0,0,0-3.46-.54,7.37,7.37,0,0,0-3,5.38s-11.69-5.49-11.22-13.12c0,0,3.34-5,9.31-3.82,0,0,.77,7.2,6.84,8.27a8.36,8.36,0,0,0,3.62-.21c2.73-.72,8.82-2.87,12.44-8.3C524.33,95,530.12,95,533.4,97.61Z" fill="#8900f2"/><path d="M533.4,97.61c-4,11.2-21.95,14.56-21.95,14.56a8.15,8.15,0,0,0-1.67-4.84,2.58,2.58,0,0,0-3.46-.54,7.37,7.37,0,0,0-3,5.38s-11.69-5.49-11.22-13.12c0,0,3.34-5,9.31-3.82,0,0,.77,7.2,6.84,8.27a8.36,8.36,0,0,0,3.62-.21c2.73-.72,8.82-2.87,12.44-8.3C524.33,95,530.12,95,533.4,97.61Z" opacity="0.2"/><path d="M361.64,127.06a1.6,1.6,0,0,0-1.78.59c-.86,1.3,1,2.81,1,2.81a16.17,16.17,0,0,1,4.34,3,12.59,12.59,0,0,1,3.07,4.67l5.34,14.08a1.14,1.14,0,0,0,.59.63l2.07,1c5.37-4,5.37-12.51,5.37-12.51C375.54,131.75,364.64,128,361.64,127.06Z" fill="#f9b499"/></svg>